<svg width="60" height="60" viewBox="0 0 60 60" fill="none" xmlns="http://www.w3.org/2000/svg">
<path d="M25.4977 38.0573C25.4977 38.1665 25.3716 38.2538 25.2126 38.2538C25.0316 38.2702 24.9055 38.1828 24.9055 38.0573C24.9055 37.9481 25.0316 37.8608 25.1906 37.8608C25.3552 37.8444 25.4977 37.9317 25.4977 38.0573ZM23.7923 37.8116C23.7539 37.9208 23.8635 38.0464 24.0281 38.0791C24.1706 38.1337 24.3352 38.0791 24.3681 37.9699C24.401 37.8608 24.2968 37.7352 24.1323 37.6861C23.9897 37.6479 23.8306 37.7025 23.7923 37.8116ZM26.2161 37.7188C26.0571 37.757 25.9474 37.8608 25.9639 37.9863C25.9803 38.0955 26.1229 38.1665 26.2874 38.1283C26.4464 38.09 26.5561 37.9863 26.5397 37.8771C26.5232 37.7734 26.3752 37.7025 26.2161 37.7188ZM29.8245 16.8C22.2184 16.8 16.4 22.5483 16.4 30.1199C16.4 36.1739 20.2277 41.3545 25.6952 43.1778C26.3971 43.3034 26.6439 42.8721 26.6439 42.5173C26.6439 42.1788 26.6274 40.3118 26.6274 39.1655C26.6274 39.1655 22.7887 39.9843 21.9826 37.5387C21.9826 37.5387 21.3574 35.9501 20.4581 35.5407C20.4581 35.5407 19.2023 34.6836 20.5458 34.7C20.5458 34.7 21.9113 34.8092 22.6626 36.1084C23.8635 38.2156 25.8761 37.6097 26.6603 37.2494C26.7864 36.3759 27.1429 35.77 27.5377 35.4097C24.4723 35.0712 21.3793 34.6291 21.3793 29.3775C21.3793 27.8763 21.7961 27.123 22.6735 26.1622C22.531 25.8074 22.0648 24.3443 22.8161 22.4555C23.9623 22.1007 26.6 23.9295 26.6 23.9295C27.6968 23.6238 28.8758 23.4655 30.0439 23.4655C31.2119 23.4655 32.391 23.6238 33.4877 23.9295C33.4877 23.9295 36.1255 22.0953 37.2716 22.4555C38.0229 24.3498 37.5568 25.8074 37.4142 26.1622C38.2916 27.1284 38.829 27.8818 38.829 29.3775C38.829 34.6454 35.599 35.0658 32.5335 35.4097C33.0381 35.8409 33.4658 36.6598 33.4658 37.9427C33.4658 39.7823 33.4493 42.0587 33.4493 42.5064C33.4493 42.8612 33.7016 43.2924 34.3981 43.1669C39.8819 41.3545 43.6 36.1739 43.6 30.1199C43.6 22.5483 37.4306 16.8 29.8245 16.8ZM21.7303 35.628C21.659 35.6826 21.6755 35.8082 21.7687 35.9119C21.8564 35.9993 21.9826 36.0375 22.0539 35.9665C22.1252 35.9119 22.1087 35.7864 22.0155 35.6826C21.9277 35.5953 21.8016 35.5571 21.7303 35.628ZM21.1381 35.1859C21.0997 35.2568 21.1545 35.3442 21.2642 35.3988C21.3519 35.4534 21.4616 35.437 21.5 35.3606C21.5384 35.2896 21.4835 35.2022 21.3739 35.1477C21.2642 35.1149 21.1764 35.1313 21.1381 35.1859ZM22.9148 37.1293C22.8271 37.2002 22.86 37.364 22.9861 37.4677C23.1123 37.5933 23.2713 37.6097 23.3426 37.5223C23.4139 37.4513 23.381 37.2876 23.2713 37.1839C23.1506 37.0583 22.9861 37.0419 22.9148 37.1293ZM22.2897 36.3268C22.2019 36.3814 22.2019 36.5233 22.2897 36.6489C22.3774 36.7744 22.5255 36.829 22.5968 36.7744C22.6845 36.7035 22.6845 36.5615 22.5968 36.436C22.52 36.3104 22.3774 36.2558 22.2897 36.3268Z" fill="black"/>
</svg>
