<svg width="60" height="60" viewBox="0 0 60 60" fill="none" xmlns="http://www.w3.org/2000/svg">
<path d="M60 0H0V60H60V0Z" fill="white"/>
<path fill-rule="evenodd" clip-rule="evenodd" d="M27.0583 25.4546V23.2978C27.0583 22.9047 27.0786 22.7737 27.1391 22.572C27.3009 22.0177 27.8469 21.6046 28.4938 21.6046C29.1407 21.6046 29.6865 22.0278 29.8483 22.572C29.909 22.7737 29.9293 22.9047 29.9293 23.2978V26.6236C29.9293 26.8253 29.9293 27.0267 29.8888 27.2082C29.7777 27.7121 29.3228 28.1658 28.8172 28.2766C28.6353 28.3168 28.4331 28.3168 28.2309 28.3168H24.895C24.5008 28.3168 24.3693 28.2967 24.1671 28.2362C23.6212 28.075 23.1967 27.5307 23.1967 26.8858C23.1967 26.2406 23.6212 25.6964 24.1671 25.5352C24.3693 25.4747 24.5008 25.4546 24.895 25.4546H27.0583ZM38.9464 40.5323H21.0536V24.8197C21.0536 24.618 21.1244 24.4467 21.266 24.3056L25.9059 19.6794C26.0474 19.5385 26.2192 19.4679 26.4215 19.4679H38.9464V40.5323ZM40.9784 15.9201C40.8874 15.9101 40.766 15.9 40.5335 15.9H25.9462C25.7847 15.9 25.6229 15.9101 25.5116 15.9201C24.8444 15.9806 24.2479 16.2931 23.7728 16.7667L18.3443 22.179C17.8694 22.6528 17.5559 23.2473 17.4953 23.9126C17.4851 24.0233 17.475 24.1846 17.475 24.3458V42.1145C17.475 42.3463 17.4851 42.4673 17.4953 42.558C17.576 43.3139 18.2634 43.9991 19.0216 44.0797C19.1128 44.09 19.234 44.1 19.4665 44.1H40.5335C40.766 44.1 40.8874 44.09 40.9784 44.0797C41.7366 43.9991 42.424 43.3139 42.5048 42.558C42.5147 42.4673 42.525 42.3463 42.525 42.1145V17.8855C42.525 17.6537 42.5147 17.5327 42.5048 17.442C42.424 16.6861 41.7366 16.0008 40.9784 15.9201Z" fill="#41C9B4"/>
</svg>
