<svg width="60" height="60" viewBox="0 0 60 60" fill="none" xmlns="http://www.w3.org/2000/svg">
<path d="M25.7887 42C22.5537 42 19.5382 41.0591 17 39.4356C19.155 39.5751 22.9581 39.2411 25.3236 36.9848C21.7651 36.8215 20.1603 34.0923 19.9509 32.926C20.2533 33.0426 21.6953 33.1826 22.5093 32.856C18.4159 31.8296 17.7879 28.2373 17.9275 27.141C18.695 27.6775 19.9975 27.8641 20.5091 27.8174C16.6948 25.0882 18.067 20.9828 18.7415 20.0963C21.4788 23.8887 25.5812 26.0186 30.6564 26.137C30.5607 25.7174 30.5102 25.2804 30.5102 24.8316C30.5102 21.6109 33.1134 19 36.3247 19C38.0025 19 39.5144 19.7128 40.5757 20.8528C41.6969 20.5901 43.3843 19.9751 44.2092 19.4432C43.7934 20.9361 42.4989 22.1815 41.7159 22.6431C41.7224 22.6588 41.7095 22.6273 41.7159 22.6431C42.4037 22.539 44.2648 22.1814 45 21.6826C44.6364 22.5213 43.264 23.9157 42.1377 24.6964C42.3473 33.9381 35.2765 42 25.7887 42Z" fill="#47ACDF"/>
</svg>
